<svg width="1640" height="856" viewBox="0 0 1640 856" fill="none" xmlns="http://www.w3.org/2000/svg">
<g clip-path="url(#clip0_1706_14344)">
<path d="M1791 753.518C1791 995.65 1385.79 1136 845.5 1136C305.214 1136 -100 995.65 -100 753.518C-100 366.598 323.315 -3 845.5 -3C1367.69 -3 1791 366.598 1791 753.518Z" fill="#EDF7FA"/>
<path fill-rule="evenodd" clip-rule="evenodd" d="M1777.16 631.683L1047.43 761.322L1740.21 520.282C1756.17 556.642 1768.6 593.891 1777.16 631.683ZM1618.52 331.262L999.712 715.62L1516.79 232.407C1553.95 263.221 1588.01 296.325 1618.52 331.262ZM1223.75 64.5315C1264.33 79.5994 1303.42 96.9372 1340.78 116.286L929.08 731.556L1223.75 64.5315ZM65.8549 338.937C91.8377 308.447 120.496 279.308 151.558 251.815L660.688 659.188L65.8549 338.937ZM-79.9502 606.811C-66.8383 558.788 -47.5218 511.777 -22.6726 466.509L671.339 723.315L-79.9502 606.811Z" fill="url(#paint0_linear_1706_14344)"/>
<path d="M1550.38 509.862C1546.95 496.247 1534.8 486.182 1520.33 486.182C1517.64 486.182 1515.04 486.528 1512.55 487.18C1506.91 474.121 1494.07 465 1479.14 465C1463.61 465 1450.36 474.852 1445.09 488.739C1443.26 488.384 1441.37 488.199 1439.43 488.199C1424.28 488.199 1411.74 499.61 1409.7 514.439C1401.64 520.863 1397 528.421 1397 536.51C1397 559.85 1435.66 565.864 1483.36 565.864C1531.05 565.864 1569.71 559.85 1569.71 536.51C1569.71 526.407 1562.47 517.132 1550.38 509.862Z" fill="white"/>
<path d="M523.172 684.483C537.792 673.172 555.234 673.172 569.854 684.483C584.473 695.793 599.445 712.292 613.012 729.495C627.15 747.422 641.889 773.547 641.889 773.547C651.189 792.079 644.592 815 623.296 815H469.704C448.408 815 441.811 792.079 451.111 773.547C451.111 773.547 465.85 747.422 479.988 729.495C493.555 712.292 508.553 695.793 523.172 684.483Z" fill="#D5F1E4"/>
<path d="M54.9617 664.933C68.773 654.356 85.2513 654.356 99.0626 664.933C112.874 675.511 127.019 690.942 139.836 707.031C153.192 723.797 167.116 748.231 167.116 748.231C175.902 765.563 169.67 787 149.551 787H4.44896C-15.6703 787 -21.9022 765.563 -13.116 748.231C-13.116 748.231 0.808107 723.797 14.1643 707.031C26.9815 690.942 41.1504 675.511 54.9617 664.933Z" fill="#D5F1E4"/>
<path d="M287.268 546.698C313.421 523.101 344.625 523.101 370.778 546.698C396.931 570.295 423.716 604.716 447.987 640.608C473.278 678.01 499.645 732.515 499.645 732.515C516.283 771.18 504.482 819 466.384 819H191.616C153.518 819 141.717 771.18 158.355 732.515C158.355 732.515 184.722 678.01 210.013 640.608C234.284 604.716 261.115 570.295 287.268 546.698Z" fill="#C7EADB"/>
<path fill-rule="evenodd" clip-rule="evenodd" d="M238.648 681.386C239.176 680.463 240.354 680.143 241.278 680.67L247.704 684.519C248.629 685.047 248.95 686.223 248.421 687.146C247.893 688.069 246.716 688.389 245.791 687.862L239.365 684.012C238.441 683.485 238.12 682.309 238.648 681.386Z" fill="#9FE0C3"/>
<path fill-rule="evenodd" clip-rule="evenodd" d="M238.648 768.643C239.176 767.72 240.354 767.399 241.278 767.927L247.704 771.776C248.629 772.304 248.95 773.479 248.421 774.402C247.893 775.325 246.716 775.646 245.791 775.118L239.365 771.269C238.441 770.741 238.12 769.566 238.648 768.643Z" fill="#9FE0C3"/>
<path fill-rule="evenodd" clip-rule="evenodd" d="M182.099 768.643C182.627 767.72 183.805 767.399 184.729 767.927L191.155 771.776C192.08 772.304 192.401 773.479 191.873 774.402C191.344 775.325 190.167 775.646 189.242 775.118L182.816 771.269C181.892 770.741 181.571 769.566 182.099 768.643Z" fill="#9FE0C3"/>
<path fill-rule="evenodd" clip-rule="evenodd" d="M266.922 725.014C267.451 724.091 268.628 723.771 269.553 724.298L275.979 728.148C276.903 728.675 277.224 729.851 276.696 730.774C276.168 731.697 274.99 732.017 274.066 731.49L267.64 727.64C266.715 727.113 266.394 725.937 266.922 725.014Z" fill="#9FE0C3"/>
<path fill-rule="evenodd" clip-rule="evenodd" d="M351.745 768.643C352.274 767.72 353.451 767.399 354.376 767.927L360.802 771.776C361.726 772.304 362.047 773.479 361.519 774.402C360.991 775.325 359.813 775.646 358.889 775.118L352.463 771.269C351.538 770.741 351.217 769.566 351.745 768.643Z" fill="#9FE0C3"/>
<path fill-rule="evenodd" clip-rule="evenodd" d="M210.373 725.014C210.902 724.091 212.079 723.771 213.004 724.298L219.43 728.148C220.354 728.675 220.675 729.851 220.147 730.774C219.619 731.697 218.441 732.017 217.517 731.49L211.091 727.64C210.166 727.113 209.845 725.937 210.373 725.014Z" fill="#9FE0C3"/>
<path fill-rule="evenodd" clip-rule="evenodd" d="M295.196 681.386C295.725 680.463 296.902 680.143 297.827 680.67L304.253 684.519C305.177 685.047 305.498 686.223 304.97 687.146C304.442 688.069 303.264 688.389 302.34 687.862L295.914 684.012C294.989 683.485 294.668 682.309 295.196 681.386Z" fill="#9FE0C3"/>
<path fill-rule="evenodd" clip-rule="evenodd" d="M295.196 768.643C295.725 767.72 296.902 767.399 297.827 767.927L304.253 771.776C305.177 772.304 305.498 773.479 304.97 774.402C304.442 775.325 303.264 775.646 302.34 775.118L295.914 771.269C294.989 770.741 294.668 769.566 295.196 768.643Z" fill="#9FE0C3"/>
<path fill-rule="evenodd" clip-rule="evenodd" d="M351.745 681.386C352.274 680.463 353.451 680.143 354.376 680.67L360.802 684.519C361.726 685.047 362.047 686.223 361.519 687.146C360.991 688.069 359.813 688.389 358.889 687.862L352.463 684.012C351.538 683.485 351.217 682.309 351.745 681.386Z" fill="#9FE0C3"/>
<path fill-rule="evenodd" clip-rule="evenodd" d="M323.471 725.014C323.999 724.091 325.177 723.771 326.101 724.298L332.527 728.148C333.452 728.675 333.773 729.851 333.244 730.774C332.716 731.697 331.539 732.017 330.614 731.49L324.188 727.64C323.264 727.113 322.943 725.937 323.471 725.014Z" fill="#9FE0C3"/>
<path fill-rule="evenodd" clip-rule="evenodd" d="M380.02 725.014C380.548 724.091 381.726 723.771 382.65 724.298L389.076 728.148C390 728.675 390.322 729.851 389.793 730.774C389.265 731.697 388.087 732.017 387.163 731.49L380.737 727.64C379.813 727.113 379.491 725.937 380.02 725.014Z" fill="#9FE0C3"/>
<path fill-rule="evenodd" clip-rule="evenodd" d="M408.294 681.386C408.822 680.463 410 680.143 410.924 680.67L417.35 684.519C418.275 685.047 418.596 686.223 418.068 687.146C417.539 688.069 416.362 688.389 415.437 687.862L409.011 684.012C408.087 683.485 407.766 682.309 408.294 681.386Z" fill="#9FE0C3"/>
<path fill-rule="evenodd" clip-rule="evenodd" d="M408.294 768.643C408.822 767.72 410 767.399 410.924 767.927L417.35 771.776C418.275 772.304 418.596 773.479 418.068 774.402C417.539 775.325 416.362 775.646 415.437 775.118L409.011 771.269C408.087 770.741 407.766 769.566 408.294 768.643Z" fill="#9FE0C3"/>
<path fill-rule="evenodd" clip-rule="evenodd" d="M464.843 768.643C465.371 767.72 466.549 767.399 467.473 767.927L473.899 771.776C474.823 772.304 475.145 773.479 474.616 774.402C474.088 775.325 472.91 775.646 471.986 775.118L465.56 771.269C464.636 770.741 464.314 769.566 464.843 768.643Z" fill="#9FE0C3"/>
<path fill-rule="evenodd" clip-rule="evenodd" d="M436.568 725.014C437.097 724.091 438.274 723.771 439.199 724.298L445.624 728.148C446.549 728.675 446.87 729.851 446.342 730.774C445.814 731.697 444.636 732.017 443.712 731.49L437.286 727.64C436.361 727.113 436.04 725.937 436.568 725.014Z" fill="#9FE0C3"/>
<path fill-rule="evenodd" clip-rule="evenodd" d="M330.022 647.582C348.437 647.582 365.067 639.666 376.917 626.938C387.315 637.797 401.567 642.985 415.198 639.339C424.112 636.954 431.365 631.164 436.314 623.359C416.331 594.932 395.428 568.948 374.882 549.403C346.283 522.199 312.161 522.199 283.562 549.403C263.317 568.66 242.702 594.17 222.971 622.108C227.924 630.543 235.466 636.828 244.851 639.339C258.48 642.985 272.732 637.798 283.13 626.94C294.98 639.667 311.609 647.582 330.022 647.582Z" fill="#F4F4EB"/>
<path d="M492.177 572.638C489.657 562.624 480.726 555.221 470.096 555.221C468.123 555.221 466.208 555.476 464.382 555.956C460.237 546.351 450.803 539.642 439.829 539.642C428.424 539.642 418.682 546.889 414.811 557.102C413.466 556.841 412.077 556.705 410.656 556.705C399.52 556.705 390.311 565.098 388.809 576.005C382.89 580.729 379.478 586.289 379.478 592.238C379.478 609.404 407.886 613.828 442.929 613.828C477.972 613.828 506.38 609.404 506.38 592.238C506.38 584.807 501.057 577.986 492.177 572.638Z" fill="#FBFBF9"/>
<path fill-rule="evenodd" clip-rule="evenodd" d="M704.036 602.87C704.192 602.25 704.809 601.878 705.415 602.037C709.998 603.241 712.714 603.354 716.809 603.525C717.802 603.567 718.875 603.612 720.076 603.676C721.738 603.766 723.95 603.998 726.048 604.389C728.103 604.772 730.209 605.335 731.549 606.154C733.251 607.194 734.358 607.992 735.207 608.892C736.065 609.803 736.607 610.764 737.254 612.005L737.287 612.068L737.312 612.134C738.251 614.629 739.097 617.153 738.991 619.642C738.898 621.819 738.088 623.87 736.253 625.833C736.444 625.972 736.645 626.113 736.855 626.26L736.931 626.313C737.428 626.659 737.979 627.043 738.492 627.483C738.972 627.893 739.035 628.623 738.633 629.113C738.232 629.603 737.517 629.668 737.038 629.258C736.612 628.893 736.144 628.567 735.622 628.203L735.577 628.171C735.207 627.913 734.81 627.635 734.42 627.326C733.154 628.106 731.534 628.698 729.97 629.121C727.882 629.685 725.683 630 724.121 630C721.179 630 718.572 629.43 716.3 628.158C714.024 626.885 712.158 624.948 710.637 622.334C709.314 620.058 708.29 617.669 707.572 615.119C707.315 614.208 707.129 612.876 706.963 611.624C706.942 611.462 706.921 611.302 706.9 611.143L706.9 611.143C706.756 610.048 706.621 609.018 706.462 608.235C705.944 606.759 705.596 605.973 705.306 605.433C705.097 605.045 704.924 604.791 704.7 604.46L704.7 604.46C704.621 604.344 704.536 604.218 704.441 604.074C704.093 603.8 703.92 603.332 704.036 602.87ZM736.727 619.541C736.656 621.224 736.017 622.896 734.203 624.652C734.131 624.692 734.062 624.74 733.998 624.798C733.092 625.608 731.373 626.347 729.391 626.882C727.445 627.408 725.444 627.685 724.121 627.685C721.468 627.685 719.255 627.172 717.389 626.128C715.526 625.085 713.935 623.472 712.585 621.151C711.357 619.039 710.412 616.832 709.749 614.479C709.548 613.764 709.381 612.615 709.209 611.313C709.188 611.157 709.167 610.999 709.146 610.84L709.146 610.84L709.146 610.839C709 609.726 708.848 608.564 708.663 607.678L708.647 607.602L708.622 607.53C708.214 606.365 707.889 605.551 707.594 604.922C710.935 605.6 713.485 605.706 716.78 605.842C717.76 605.883 718.805 605.926 719.957 605.988C721.535 606.073 723.649 606.295 725.641 606.667C727.677 607.046 729.426 607.554 730.386 608.141C732.048 609.157 732.942 609.828 733.575 610.499C734.187 611.148 734.603 611.846 735.222 613.031C736.158 615.523 736.81 617.61 736.727 619.541Z" fill="#82D6B0"/>
<path d="M1062.11 654.215C1076.14 641.928 1092.88 641.928 1106.91 654.215C1120.95 666.502 1135.32 684.425 1148.34 703.113C1161.91 722.588 1176.05 750.968 1176.05 750.968C1184.98 771.1 1178.65 796 1158.21 796H1010.79C990.351 796 984.02 771.1 992.946 750.968C992.946 750.968 1007.09 722.588 1020.66 703.113C1033.68 684.425 1048.08 666.502 1062.11 654.215Z" fill="#D5F1E4"/>
<path d="M1254.55 538.05C1278.65 516.65 1307.4 516.65 1331.49 538.05C1355.59 559.45 1380.27 590.667 1402.63 623.217C1425.93 657.136 1450.22 706.567 1450.22 706.567C1465.55 741.632 1454.68 785 1419.58 785H1166.42C1131.32 785 1120.45 741.632 1135.78 706.567C1135.78 706.567 1160.07 657.136 1183.37 623.217C1205.73 590.667 1230.45 559.45 1254.55 538.05Z" fill="#C7EADB"/>
<path fill-rule="evenodd" clip-rule="evenodd" d="M1293.69 615.281C1309.21 615.281 1323.22 609.053 1333.21 599.041C1341.97 607.583 1353.98 611.665 1365.46 608.796C1372.97 606.92 1379.08 602.366 1383.25 596.227C1366.41 573.865 1348.8 553.424 1331.49 538.05C1307.39 516.65 1278.65 516.65 1254.55 538.05C1237.49 553.198 1220.12 573.265 1203.5 595.242C1207.67 601.877 1214.03 606.821 1221.93 608.796C1233.42 611.664 1245.43 607.584 1254.19 599.043C1264.17 609.054 1278.18 615.281 1293.69 615.281Z" fill="#F4F4EB"/>
<path fill-rule="evenodd" clip-rule="evenodd" d="M1165.41 743.226C1165.98 742.294 1167.26 741.97 1168.26 742.503L1175.2 746.389C1176.2 746.922 1176.55 748.109 1175.98 749.041C1175.41 749.973 1174.14 750.296 1173.14 749.764L1166.19 745.877C1165.19 745.345 1164.84 744.158 1165.41 743.226Z" fill="#9FE0C3"/>
<path fill-rule="evenodd" clip-rule="evenodd" d="M1195.99 699.177C1196.56 698.245 1197.83 697.921 1198.83 698.453L1205.78 702.34C1206.78 702.873 1207.13 704.06 1206.56 704.992C1205.99 705.923 1204.71 706.247 1203.71 705.715L1196.76 701.828C1195.76 701.296 1195.42 700.108 1195.99 699.177Z" fill="#9FE0C3"/>
<path fill-rule="evenodd" clip-rule="evenodd" d="M1287.72 743.226C1288.29 742.294 1289.56 741.97 1290.56 742.503L1297.51 746.389C1298.51 746.922 1298.86 748.109 1298.29 749.041C1297.71 749.973 1296.44 750.296 1295.44 749.764L1288.49 745.877C1287.49 745.345 1287.14 744.158 1287.72 743.226Z" fill="#9FE0C3"/>
<path fill-rule="evenodd" clip-rule="evenodd" d="M1226.56 655.127C1227.13 654.195 1228.41 653.872 1229.41 654.404L1236.36 658.291C1237.36 658.823 1237.7 660.01 1237.13 660.942C1236.56 661.874 1235.29 662.198 1234.29 661.665L1227.34 657.779C1226.34 657.246 1225.99 656.059 1226.56 655.127Z" fill="#9FE0C3"/>
<path fill-rule="evenodd" clip-rule="evenodd" d="M1226.56 743.226C1227.13 742.294 1228.41 741.97 1229.41 742.503L1236.36 746.389C1237.36 746.922 1237.7 748.109 1237.13 749.041C1236.56 749.973 1235.29 750.296 1234.29 749.764L1227.34 745.877C1226.34 745.345 1225.99 744.158 1226.56 743.226Z" fill="#9FE0C3"/>
<path fill-rule="evenodd" clip-rule="evenodd" d="M1287.72 655.127C1288.29 654.195 1289.56 653.872 1290.56 654.404L1297.51 658.291C1298.51 658.823 1298.86 660.01 1298.29 660.942C1297.71 661.874 1296.44 662.198 1295.44 661.665L1288.49 657.779C1287.49 657.246 1287.14 656.059 1287.72 655.127Z" fill="#9FE0C3"/>
<path fill-rule="evenodd" clip-rule="evenodd" d="M1257.14 699.177C1257.71 698.245 1258.98 697.921 1259.98 698.453L1266.93 702.34C1267.93 702.873 1268.28 704.06 1267.71 704.992C1267.14 705.923 1265.86 706.247 1264.86 705.715L1257.92 701.828C1256.92 701.296 1256.57 700.108 1257.14 699.177Z" fill="#9FE0C3"/>
<path fill-rule="evenodd" clip-rule="evenodd" d="M1318.29 699.177C1318.86 698.245 1320.14 697.921 1321.14 698.453L1328.09 702.34C1329.09 702.873 1329.43 704.06 1328.86 704.992C1328.29 705.923 1327.02 706.247 1326.02 705.715L1319.07 701.828C1318.07 701.296 1317.72 700.108 1318.29 699.177Z" fill="#9FE0C3"/>
<path fill-rule="evenodd" clip-rule="evenodd" d="M1348.87 655.127C1349.44 654.195 1350.71 653.872 1351.71 654.404L1358.66 658.291C1359.66 658.823 1360.01 660.01 1359.44 660.942C1358.87 661.874 1357.59 662.198 1356.59 661.665L1349.64 657.779C1348.64 657.246 1348.3 656.059 1348.87 655.127Z" fill="#9FE0C3"/>
<path fill-rule="evenodd" clip-rule="evenodd" d="M1348.87 743.226C1349.44 742.294 1350.71 741.97 1351.71 742.503L1358.66 746.389C1359.66 746.922 1360.01 748.109 1359.44 749.041C1358.87 749.973 1357.59 750.296 1356.59 749.764L1349.64 745.877C1348.64 745.345 1348.3 744.158 1348.87 743.226Z" fill="#9FE0C3"/>
<path fill-rule="evenodd" clip-rule="evenodd" d="M1410.02 743.226C1410.59 742.294 1411.87 741.97 1412.87 742.503L1419.81 746.389C1420.81 746.922 1421.16 748.109 1420.59 749.041C1420.02 749.973 1418.75 750.296 1417.75 749.764L1410.8 745.877C1409.8 745.345 1409.45 744.158 1410.02 743.226Z" fill="#9FE0C3"/>
<path fill-rule="evenodd" clip-rule="evenodd" d="M1379.44 699.177C1380.02 698.245 1381.29 697.921 1382.29 698.453L1389.24 702.34C1390.24 702.873 1390.59 704.06 1390.01 704.992C1389.44 705.923 1388.17 706.247 1387.17 705.715L1380.22 701.828C1379.22 701.296 1378.87 700.108 1379.44 699.177Z" fill="#9FE0C3"/>
<path fill-rule="evenodd" clip-rule="evenodd" d="M1401.55 437.337C1401.58 437.367 1401.61 437.399 1401.64 437.433C1401.75 437.541 1401.82 437.662 1401.88 437.79C1401.96 437.956 1402 438.14 1402 438.333C1402 438.525 1401.96 438.707 1401.89 438.872C1401.83 438.995 1401.75 439.111 1401.66 439.216C1401.64 439.236 1401.62 439.256 1401.6 439.275C1401.36 439.521 1401.2 439.856 1401.14 440.562C1401.09 441.071 1401.1 441.615 1401.11 442.305C1401.12 442.686 1401.13 443.112 1401.13 443.601C1401.13 444.323 1401.13 444.855 1401.12 445.292L1401.12 445.297C1401.12 446.13 1401.12 446.62 1401.13 447.437C1401.18 450.18 1400.52 453.774 1398.66 456.26C1397.06 458.393 1395.83 459.909 1393.34 461.423C1388.72 464.238 1382.6 465.653 1377.13 464.707C1375.96 464.504 1374.66 464.19 1373.38 463.881C1372.84 463.75 1372.3 463.62 1371.78 463.499C1370.02 463.094 1368.36 462.783 1366.9 462.765C1366.64 462.942 1366.37 463.089 1366.16 463.187C1364.86 463.8 1363.55 464.283 1362.26 464.757L1361.83 464.915C1361.13 465.173 1360.35 464.824 1360.09 464.134C1359.82 463.444 1360.18 462.676 1360.88 462.418L1361.3 462.262C1362.61 461.782 1363.81 461.341 1364.99 460.782C1365.12 460.723 1365.32 460.612 1365.47 460.496C1365.5 460.473 1365.53 460.454 1365.55 460.438C1365.62 460.29 1365.71 460.158 1365.83 460.048C1365.42 457.624 1365.14 455.179 1365.88 452.458C1366.76 449.261 1368.21 445.781 1371.17 443.462L1371.18 443.458C1377.1 438.862 1381.73 438.176 1386.23 438.048C1388.58 437.938 1390.66 437.728 1392.71 437.521C1392.99 437.493 1393.28 437.464 1393.56 437.435C1395.87 437.205 1398.16 437 1400.64 437M1368.6 460.209C1369.87 460.352 1371.16 460.618 1372.4 460.903C1373 461.04 1373.58 461.181 1374.14 461.317C1375.37 461.615 1376.52 461.893 1377.6 462.081C1382.34 462.9 1387.79 461.669 1391.92 459.154C1393.96 457.915 1394.94 456.735 1396.47 454.68C1397.85 452.841 1398.46 449.909 1398.42 447.479C1398.41 446.637 1398.41 446.114 1398.41 445.261L1398.41 445.26C1398.42 444.822 1398.42 444.298 1398.42 443.599L1398.42 443.595C1398.42 443.245 1398.41 442.888 1398.41 442.534C1398.4 441.746 1398.38 440.973 1398.44 440.327C1398.46 440.124 1398.49 439.92 1398.52 439.717C1396.96 439.789 1395.43 439.93 1393.84 440.088C1393.55 440.116 1393.27 440.145 1392.99 440.174C1390.94 440.38 1388.78 440.599 1386.35 440.712L1386.33 440.712L1386.32 440.713C1382.22 440.829 1378.2 441.4 1372.86 445.55C1370.59 447.329 1369.33 450.124 1368.5 453.155C1367.86 455.495 1368.15 457.575 1368.6 460.209Z" fill="#82D6B0"/>
<path d="M1401.55 437.337C1401.31 437.127 1400.99 437 1400.65 437L1401.55 437.337Z" fill="#82D6B0"/>
<path d="M1465.5 690.567C1476.15 680.478 1488.86 680.478 1499.52 690.567C1510.17 700.657 1521.08 715.375 1530.96 730.722C1541.27 746.714 1552 770.02 1552 770.02C1558.78 786.553 1553.97 807 1538.46 807H1426.54C1411.03 807 1406.22 786.553 1413 770.02C1413 770.02 1423.73 746.715 1434.04 730.722C1443.92 715.375 1454.85 700.657 1465.5 690.567Z" fill="#D5F1E4"/>
<path d="M228.194 123.961C235.68 94.5337 262.211 72.78 293.792 72.78C299.653 72.78 305.341 73.5295 310.766 74.9384C323.082 46.7131 351.107 27 383.708 27C417.592 27 446.532 48.2944 458.031 78.3078C462.029 77.5412 466.155 77.14 470.375 77.14C503.459 77.14 530.817 101.804 535.28 133.854C552.862 147.737 563 164.073 563 181.557C563 232 478.606 245 374.5 245C270.394 245 186 232 186 181.557C186 159.721 201.814 139.675 228.194 123.961Z" fill="white"/>
<path d="M119.757 451.557C116.327 437.941 104.173 427.876 89.7049 427.876C87.0195 427.876 84.4138 428.223 81.9288 428.875C76.2863 415.816 63.4474 406.695 48.5121 406.695C32.9893 406.695 19.7313 416.547 14.4634 430.434C12.6319 430.079 10.7414 429.894 8.80821 429.894C-6.3483 429.894 -18.8818 441.305 -20.926 456.134C-28.981 462.558 -33.6254 470.116 -33.6254 478.205C-33.6254 501.545 5.03749 507.559 52.7307 507.559C100.424 507.559 139.087 501.545 139.087 478.205C139.087 468.102 131.842 458.827 119.757 451.557Z" fill="white"/>
<path d="M1160.17 136.731C1166.94 110.409 1190.93 90.95 1219.5 90.95C1224.8 90.95 1229.95 91.6204 1234.85 92.8807C1245.99 67.6333 1271.34 50 1300.83 50C1331.48 50 1357.65 69.0477 1368.05 95.8946C1371.67 95.2088 1375.4 94.85 1379.22 94.85C1409.14 94.85 1433.89 116.911 1437.93 145.58C1453.83 157.999 1463 172.611 1463 188.25C1463 233.372 1386.66 245 1292.5 245C1198.34 245 1122 233.372 1122 188.25C1122 168.718 1136.3 150.787 1160.17 136.731Z" fill="white"/>
<path d="M931.05 696.187C929.956 711.246 923.174 732.062 895.577 739.801C894.623 740.068 893.934 741.065 893.934 742.231C893.934 743.612 894.875 744.731 896.037 744.731H921.713C926.448 744.731 930.374 741.049 930.696 736.305L933.158 700.086C933.211 699.303 933.042 698.52 932.668 697.829C932.295 697.139 931.734 696.569 931.05 696.187ZM965.045 714.223C965.045 714.223 969.394 733.21 991.77 740.556C993.638 741.169 995.847 742.232 995.847 743.165C995.847 743.402 995.801 743.638 995.71 743.857C995.62 744.076 995.487 744.275 995.32 744.443C995.153 744.611 994.955 744.744 994.736 744.835C994.518 744.926 994.284 744.973 994.048 744.973C994.048 744.973 988.633 744.63 985.261 743.857C981.828 743.069 976.717 740.964 976.717 740.964C970.069 740.964 965.045 734.329 965.045 727.653L965.045 714.223ZM891.486 641.12L893.967 656.857C894.955 663.132 899.357 668.273 905.332 670.361C914.372 673.519 926.762 680.07 928.553 692.542L926.451 663.954C926.451 663.954 899.169 666.448 899.435 638.818L891.486 641.12ZM994.836 640.601L993.132 654.538C992.452 660.096 988.733 664.759 983.533 666.782C975.667 669.843 964.954 675.994 963.757 687.034L964.736 661.788C964.736 661.788 988.842 663.145 987.764 638.817L994.836 640.601Z" fill="#BC8C72"/>
<path d="M919.915 634.844C919.915 634.844 931.444 681.85 926.084 734.867C925.69 738.76 924.302 742.498 922.026 745.674C919.262 749.528 914.606 753.996 906.998 756.588C904.967 757.28 904.904 760.154 906.897 760.952C913.144 763.454 923.715 765.348 933.534 756.038C935.905 753.789 938.896 752.237 942.145 751.941C942.868 751.874 943.595 751.858 944.32 751.893C947.277 752.038 950.081 753.252 952.383 755.122C955.588 757.725 964.072 763.547 974.557 762.288C976.211 762.089 976.848 759.981 975.611 758.86C973.58 757.02 972.844 756.038 970.526 752.224C970.526 752.224 982.481 759.512 994.618 755.122C996.739 754.354 996.614 751.304 994.447 750.677C986.549 748.395 977.126 740.354 970.313 728.448C968.489 725.261 967.599 721.635 967.453 717.963C966.884 703.695 965.356 657.214 968.598 636.053L919.915 634.844Z" fill="#D5AD90"/>
<path d="M953.746 652.681C953.746 652.681 958.942 656.441 966.936 656.744C967.234 648.809 967.753 641.568 968.598 636.055L919.915 634.845C919.915 634.845 921.647 641.924 923.455 653.653C929.901 656.744 944.257 659.482 953.746 652.681ZM942.144 737.515C940.249 749.984 933.534 756.039 933.534 756.039C935.906 753.789 938.897 752.238 942.146 751.941C942.869 751.874 943.595 751.858 944.32 751.893C947.277 752.038 950.081 753.252 952.384 755.122C947.105 750.382 944.633 742.697 943.51 737.449C943.345 736.684 942.261 736.741 942.144 737.515ZM986.888 756.471C977.153 756.584 972.224 744.874 967.428 740.592C966.756 739.992 964.756 739.8 965.676 742.176C967.972 748.106 970.526 752.225 970.526 752.225C970.526 752.225 977.512 756.761 986.888 756.471Z" fill="#BC8C72"/>
<path d="M900.454 635.929C900.454 635.929 934.712 666.795 975.118 640.338C975.118 640.338 1009.38 661.945 1032.21 632.843C1032.21 632.843 1055.42 633.181 1062.98 608.747C1065.22 601.523 1065.56 593.814 1064.18 586.377C1062.44 577.035 1057.65 563.731 1044.51 557.001C1044.51 557.001 1057.69 534.954 1044.51 511.584C1044.51 511.584 1030.46 485.569 998.835 492.183C998.835 492.183 979.295 461.081 913.573 469.108C913.573 469.108 880.69 473.664 859.608 504.97C859.608 504.97 843.138 503.745 830.277 518.903C824.95 525.181 821.704 532.976 820.549 541.142C819.422 549.117 819.607 559.614 826.229 566.261C826.229 566.261 821.58 567.305 816.308 570.447C791.97 584.955 803.339 622.865 831.625 621.852C831.874 621.843 832.124 621.832 832.377 621.819C832.377 621.819 834.006 638.821 854.931 645.797C862.123 648.194 869.837 648.53 877.296 647.187C884.835 645.83 894.605 642.78 900.454 635.929Z" fill="url(#paint1_linear_1706_14344)"/>
<path d="M1064.18 586.548C1062.44 577.23 1057.66 563.962 1044.54 557.25C1044.54 557.25 1057.7 535.262 1044.54 511.953C1044.54 511.953 1037.82 499.557 1023.24 494.081C1030.87 500.364 1040.73 512.178 1037.95 529.983C1037.95 529.983 1035.23 544.949 1021.43 551.545C1021.44 551.451 1021.47 551.36 1021.48 551.266C1022.71 540.355 1015.63 530.875 1005.77 528.361C1003.8 527.859 1002.19 529.95 1003.01 531.816C1004.08 534.248 1004.69 536.902 1004.41 539.664C1002.99 553.375 992.875 558.256 987.15 559.93C985.312 560.467 984.695 562.789 986.082 564.111C990.448 568.268 996.59 570.569 1003.25 569.741C1009.82 568.925 1015.51 564.952 1018.74 559.426C1022.39 566.166 1027.03 578.227 1023.58 592.015C1019.9 606.758 1007.67 617.635 992.923 621.159C986.146 622.778 977.866 623.616 968.853 622.062C963.631 621.16 958.616 624.402 956.921 629.435C954.338 637.1 947.718 646.817 930.985 650.122C943.466 652.369 958.836 651.078 975.219 640.367C975.219 640.367 1009.44 661.917 1032.25 632.892C1032.25 632.892 1055.43 633.229 1062.98 608.859C1065.22 601.654 1065.56 593.966 1064.18 586.548ZM909.596 564.307C907.625 563.804 906.017 565.895 906.837 567.762C907.905 570.194 908.514 572.847 908.229 575.61C906.815 589.321 896.698 594.201 890.973 595.875C889.136 596.412 888.518 598.735 889.906 600.056C894.272 604.214 900.413 606.514 907.077 605.686C916.568 604.506 924.224 596.738 925.299 587.212C926.529 576.3 919.451 566.821 909.596 564.307Z" fill="#61C297"/>
<path d="M941.381 698.12C941.843 708.884 941.603 719.618 941.619 730.382C941.621 731.653 943.521 731.642 943.577 730.382C944.061 719.642 943.392 708.824 942.533 698.12C942.474 697.387 941.349 697.368 941.381 698.12ZM964.131 735.147C963.337 731.307 961.866 727.655 961.213 723.748C960.641 720.323 961.037 716.226 959.453 713.11C959.059 712.336 957.933 712.592 957.698 713.34C956.601 716.821 957.872 721.652 958.652 725.185C959.461 728.847 960.739 732.887 963.554 735.484C963.814 735.724 964.201 735.486 964.131 735.147ZM957.697 706.856C959.6 706.856 959.602 703.887 957.697 703.887C955.794 703.887 955.79 706.856 957.697 706.856Z" fill="#BC8C72"/>
<path fill-rule="evenodd" clip-rule="evenodd" d="M862.921 679.891C862.951 679.918 862.98 679.946 863.007 679.976C863.094 680.072 863.163 680.178 863.213 680.291C863.278 680.438 863.314 680.6 863.314 680.771C863.314 680.94 863.279 681.101 863.215 681.246C863.167 681.355 863.102 681.457 863.02 681.55C863.005 681.568 862.988 681.585 862.972 681.602C862.76 681.819 862.626 682.115 862.571 682.738C862.531 683.188 862.539 683.668 862.548 684.277C862.554 684.613 862.56 684.989 862.559 685.421C862.559 686.058 862.557 686.528 862.556 686.914L862.556 686.918C862.554 687.653 862.552 688.086 862.564 688.807C862.602 691.229 862.03 694.401 860.422 696.596C859.043 698.479 857.978 699.817 855.826 701.154C851.822 703.639 846.532 704.888 841.802 704.053C840.783 703.874 839.661 703.596 838.559 703.324C838.09 703.208 837.624 703.093 837.172 702.987C835.647 702.629 834.214 702.354 832.953 702.339C832.725 702.495 832.492 702.625 832.313 702.711C831.188 703.252 830.05 703.679 828.934 704.097L828.563 704.237C827.957 704.465 827.282 704.156 827.055 703.547C826.827 702.938 827.135 702.26 827.741 702.032L828.107 701.895C829.237 701.471 830.276 701.081 831.3 700.588C831.408 700.536 831.578 700.438 831.713 700.336C831.74 700.316 831.761 700.298 831.777 700.285C831.837 700.154 831.92 700.037 832.02 699.94C831.672 697.8 831.424 695.642 832.071 693.24C832.831 690.418 834.083 687.346 836.643 685.299L836.648 685.295C841.772 681.237 845.775 680.632 849.672 680.519C851.701 680.422 853.506 680.236 855.273 680.054C855.521 680.029 855.768 680.003 856.015 679.978C858.014 679.775 859.991 679.594 862.139 679.594M834.42 700.082C835.518 700.209 836.636 700.444 837.705 700.695C838.223 700.816 838.724 700.94 839.212 701.061C840.274 701.323 841.269 701.569 842.207 701.735C846.305 702.458 851.017 701.371 854.593 699.151C856.356 698.057 857.206 697.015 858.534 695.202C859.723 693.578 860.254 690.989 860.22 688.845C860.208 688.101 860.21 687.64 860.212 686.887L860.212 686.886C860.213 686.499 860.214 686.036 860.214 685.419L860.214 685.416C860.215 685.107 860.211 684.792 860.206 684.479C860.196 683.784 860.185 683.101 860.236 682.53C860.251 682.351 860.274 682.172 860.305 681.992C858.951 682.056 857.628 682.18 856.251 682.32C856.008 682.345 855.763 682.37 855.516 682.396C853.749 682.578 851.874 682.771 849.772 682.87L849.761 682.871L849.751 682.871C846.201 682.974 842.729 683.478 838.101 687.142C836.138 688.712 835.054 691.179 834.333 693.855C833.777 695.921 834.033 697.757 834.42 700.082Z" fill="#82D6B0"/>
<path d="M862.921 679.891C862.714 679.706 862.441 679.594 862.142 679.594L862.921 679.891Z" fill="#82D6B0"/>
<path fill-rule="evenodd" clip-rule="evenodd" d="M1640 803.088C1640 803.088 1503.21 797.085 1364.12 775.586C1184.24 747.781 974.371 726.266 671.743 738.642C488.495 746.136 90.2 767.335 0 767.335V894H91.5667C181.767 894 364.9 894 546.667 894C728.433 894 911.567 894 1093.33 894C1275.1 894 1458.23 894 1548.43 894H1640V803.088Z" fill="#ADD7C3"/>
<path fill-rule="evenodd" clip-rule="evenodd" d="M0.000244141 732.006L136.03 747.424C273.588 764.384 547.176 798.305 820.764 806.014C1092.82 813.723 1366.41 794.46 1503.97 785.209L1640 777.5L1640 894H1503.97C1366.41 894 1092.82 894 820.764 894C547.176 894 273.588 894 136.03 894H0.000244141V732.006Z" fill="#B9DFCD"/>
</g>
<defs>
<linearGradient id="paint0_linear_1706_14344" x1="998.243" y1="666.478" x2="1886.32" y2="220.18" gradientUnits="userSpaceOnUse">
<stop stop-color="#FAF5E2" stop-opacity="0.15"/>
<stop offset="0.536458" stop-color="#EDF7FA"/>
</linearGradient>
<linearGradient id="paint1_linear_1706_14344" x1="933.556" y1="468.216" x2="933.556" y2="576.135" gradientUnits="userSpaceOnUse">
<stop stop-color="#9DE1C3"/>
<stop offset="1" stop-color="#8CD9B6"/>
</linearGradient>
<clipPath id="clip0_1706_14344">
<rect width="1640" height="856" fill="white"/>
</clipPath>
</defs>
</svg>
